# This file uses centimeters as units for non-parametric coordinates.

mtllib tri.mtl
g default
v -0.467845 -0.252741 -0.078847
v 0.467845 -0.252741 -0.078847
v -0.467845 0.252741 -0.078847
v 0.467845 0.252741 -0.078847
v -0.000000 0.252741 -0.076784
v -0.000000 -0.252741 -0.076784
v -1.136621 -0.252741 -0.421308
v -1.136621 0.252741 -0.421308
v 1.136621 -0.252741 -0.421308
v 1.136621 0.252741 -0.421308
vt 0.375000 0.000000
vt 0.625000 0.000000
vt 0.375000 0.250000
vt 0.625000 0.250000
vt 0.875000 0.000000
vt 0.875000 0.250000
vt 0.125000 0.000000
vt 0.125000 0.250000
vt 0.000000 0.000000
vt 1.000000 0.000000
vt 1.000000 1.000000
vt 0.000000 1.000000
vt 0.000000 0.000000
vt 1.000000 0.000000
vt 1.000000 1.000000
vt 0.000000 1.000000
vn 0.004408 0.000000 0.999990
vn 0.004408 0.000000 0.999990
vn 0.004408 0.000000 0.999990
vn 0.004408 0.000000 0.999990
vn -0.004408 0.000000 0.999990
vn -0.004408 0.000000 0.999990
vn -0.004408 0.000000 0.999990
vn -0.004408 0.000000 0.999990
vn -0.455789 0.000000 0.890088
vn -0.455789 0.000000 0.890088
vn -0.455789 0.000000 0.890088
vn -0.455789 0.000000 0.890088
vn 0.455789 0.000000 0.890088
vn 0.455789 0.000000 0.890088
vn 0.455789 0.000000 0.890088
vn 0.455789 0.000000 0.890088
s off
g pCube1
usemtl initialShadingGroup
f 2/2/1 4/4/2 5/6/3 6/5/4
f 6/7/5 5/8/6 3/3/7 1/1/8
f 3/9/9 8/12/10 7/11/11 1/10/12
f 2/13/13 9/16/14 10/15/15 4/14/16
